<svg id="Bahan_copy" data-name="Bahan copy" xmlns="http://www.w3.org/2000/svg" viewBox="0 0 64 64"><defs><style>.cls-1{fill:#231f20;}</style></defs><path class="cls-1" d="M55.419,10.19727a4.50211,4.50211,0,0,0-2.93848-1.84571L27.19092,4.06445a4.55777,4.55777,0,0,0-5.22849,3.711l-.441,2.59078H12.74316a5.00589,5.00589,0,0,0-5,5V55a5.00589,5.00589,0,0,0,5,5H37.45752A5.00657,5.00657,0,0,0,42.069,56.92816c.48964.04379,2.3796.46986,2.87436.42287a4.53651,4.53651,0,0,0,4.46585-3.768l6.7832-40.00293A4.50259,4.50259,0,0,0,55.419,10.19727ZM37.45752,58H12.74316a3.00328,3.00328,0,0,1-3-3V15.36621a3.00328,3.00328,0,0,1,3-3H37.45752a3.00328,3.00328,0,0,1,3,3V55A3.00328,3.00328,0,0,1,37.45752,58ZM54.2207,13.24561,47.4375,53.24854a2.5374,2.5374,0,0,1-2.92187,2.0664l-2.05811-.34936V15.36621a5.00589,5.00589,0,0,0-5-5H23.55029l.38379-2.25537a2.53864,2.53864,0,0,1,2.92237-2.07471L52.146,10.32324A2.54769,2.54769,0,0,1,54.2207,13.24561Z"/><path class="cls-1" d="M17.65625,33.604h14.8833a2.56129,2.56129,0,0,0,2.00244-.91943,2.5043,2.5043,0,0,0,.49463-2.0957,10.16942,10.16942,0,0,0-5.387-7.03357,5.71,5.71,0,1,0-9.104-.00415,10.11976,10.11976,0,0,0-5.38651,7.04162A2.55014,2.55014,0,0,0,17.65625,33.604Zm5.97217-16.90429a3.72047,3.72047,0,0,1,3.67666,6.40239C22.749,26.14918,18.695,19.09777,23.62842,16.69971Zm-1.4513,8.3233a5.68632,5.68632,0,0,0,5.82691-.00534,8.14953,8.14953,0,0,1,5.07263,5.96915.50424.50424,0,0,1-.0835.43261.56775.56775,0,0,1-.45361.18457H17.65625a.5549.5549,0,0,1-.43018-.20654.48837.48837,0,0,1-.10644-.40869A8.117,8.117,0,0,1,22.17712,25.023Z"/><path class="cls-1" d="M36.16309,36.46631H14.0376a1.00019,1.00019,0,0,0,.00007,2H36.16309A1.0002,1.0002,0,0,0,36.16309,36.46631Z"/><path class="cls-1" d="M14.0376,44.02344H27a1.00019,1.00019,0,0,0-.00007-2H14.0376A1.0002,1.0002,0,0,0,14.0376,44.02344Z"/><path class="cls-1" d="M36.16309,47.58057H14.0376a1.00019,1.00019,0,0,0,.00007,2H36.16309A1.0002,1.0002,0,0,0,36.16309,47.58057Z"/><path class="cls-1" d="M27,53.1377H14.0376a1.00019,1.00019,0,0,0,.00006,2H27A1.0002,1.0002,0,0,0,27,53.1377Z"/></svg>