<?xml version="1.0" encoding="utf-8"?>
<!-- Generator: Adobe Illustrator 21.1.0, SVG Export Plug-In . SVG Version: 6.00 Build 0)  -->
<svg version="1.1" id="Line" xmlns="http://www.w3.org/2000/svg" xmlns:xlink="http://www.w3.org/1999/xlink" x="0px" y="0px"
	 viewBox="0 0 32 32" style="enable-background:new 0 0 32 32;" xml:space="preserve">
<path d="M9,18h7c0.552,0,1-0.447,1-1v-1.5c0-1.516-0.758-2.852-1.91-3.668C15.65,11.212,16,10.399,16,9.5C16,7.57,14.43,6,12.5,6
	S9,7.57,9,9.5c0,0.899,0.35,1.712,0.91,2.332C8.758,12.648,8,13.984,8,15.5V17C8,17.553,8.448,18,9,18z M12.5,8
	C13.327,8,14,8.673,14,9.5S13.327,11,12.5,11S11,10.327,11,9.5S11.673,8,12.5,8z M10,15.5c0-1.378,1.122-2.5,2.5-2.5
	s2.5,1.122,2.5,2.5V16h-5V15.5z"/>
<path d="M26,2H6C4.897,2,4,2.897,4,4v24c0,1.103,0.897,2,2,2h20c1.103,0,2-0.897,2-2V4C28,2.897,27.103,2,26,2z M6,28V4h20l0.001,24
	H6z"/>
<path d="M24,21c0,0.553-0.448,1-1,1H9c-0.552,0-1-0.447-1-1s0.448-1,1-1h14C23.552,20,24,20.447,24,21z"/>
<path d="M24,25c0,0.553-0.448,1-1,1H9c-0.552,0-1-0.447-1-1s0.448-1,1-1h14C23.552,24,24,24.447,24,25z"/>
<path d="M24,14c0,0.552-0.448,1-1,1h-3c-0.552,0-1-0.448-1-1s0.448-1,1-1h3C23.552,13,24,13.448,24,14z"/>
<path d="M24,10c0,0.552-0.448,1-1,1h-3c-0.552,0-1-0.448-1-1s0.448-1,1-1h3C23.552,9,24,9.448,24,10z"/>
</svg>
