<?xml version="1.0" encoding="UTF-8"?>
<svg id="Layer_1" data-name="Layer 1" xmlns="http://www.w3.org/2000/svg" viewBox="0 0 22.18 21.14">
  <defs>
    <style>
      .cls-1, .cls-2 {
        fill: none;
      }

      .cls-2 {
        stroke: #000;
        stroke-miterlimit: 10;
      }
    </style>
  </defs>
  <g>
    <rect class="cls-1" y="4.2" width="22.18" height="12.74"/>
    <path d="M2.65,10.97c0-2.96,2.22-4.8,4.26-4.8,1.62,0,2.81.74,3.65,1.6l-.73,1.36c-.71-.69-1.59-1.35-2.86-1.35-1.37,0-2.67,1.22-2.67,3.22s1.3,3.21,2.65,3.21c1.27,0,2.2-.68,2.93-1.38l.82,1.18c-.48.69-1.83,1.77-3.76,1.77s-4.3-1.65-4.3-4.82Z"/>
    <path d="M13.01,6.45l2.5,6.88,2.43-6.88h1.68l-3.41,9.14h-1.39l-3.55-9.14h1.74Z"/>
  </g>
  <rect class="cls-2" x="1.02" y=".5" width="20.14" height="20.14" rx="4.18" ry="4.18"/>
</svg>